# xmcd
#
# Track frame offsets: 
#        150
#        22397
#        37755
#        52960
#        71692
#        95605
#        108810
#        125287
#        142405
#        157587
#        185897
#        201512
#        214987
#        231860
#        251902
#        265382
#        283512
#        301095
#
# Disc length: 4229 seconds
#
# Revision: 3
# Processed by: cddbd v1.5.2PL0 Copyright (c) Steve Scherf et al.
# Submitted via: ExactAudioCopy v1.3
#
DISCID=11108312
DTITLE=Offenbach - Offenbach 3
DYEAR=1900
DGENRE=
TTITLE0=Je l'sais ben...
TTITLE1=Deux autres bières
TTITLE2=Les eaux qui dorment
TTITLE3=Mes blues passent pu dans' porte
TTITLE4=Je chante comme un coyote
TTITLE5=Femme qui s'en va
TTITLE6=Bye bye
TTITLE7=Quand les hommes vivront d'amour
TTITLE8=J'ai l'rock 'n' roll pis toé
TTITLE9=Ayoye
TTITLE10=Palais des glaces
TTITLE11=Rock de v'lours
TTITLE12=Pourquoi mourir d'amour
TTITLE13=Une fille sans famille
TTITLE14=Le bar-salon des Deux toxons
TTITLE15=Hit an' run
TTITLE16=Ouv'moé ta porte
TTITLE17=Poison rouge (chanson sur le vin et les femmes)
EXTD=
EXTT0=
EXTT1=
EXTT2=
EXTT3=
EXTT4=
EXTT5=
EXTT6=
EXTT7=
EXTT8=
EXTT9=
EXTT10=
EXTT11=
EXTT12=
EXTT13=
EXTT14=
EXTT15=
EXTT16=
EXTT17=
PLAYORDER=
